<svg id="svg" version="1.1" xmlns="http://www.w3.org/2000/svg" xmlns:xlink="http://www.w3.org/1999/xlink" width="400" height="297.92663476874003" viewBox="0, 0, 400,297.92663476874003"><g id="svgg"><path id="path0" d="M169.001 69.177 C 164.811 69.499,162.751 69.789,162.570 70.082 C 162.481 70.225,162.058 70.343,161.628 70.343 C 160.894 70.343,159.478 70.714,158.122 71.263 C 157.794 71.395,156.596 71.865,155.460 72.307 C 151.775 73.739,144.402 78.075,144.014 79.038 C 143.959 79.174,143.772 79.285,143.598 79.285 C 143.123 79.285,137.735 84.816,136.048 87.034 C 135.238 88.100,134.475 89.016,134.352 89.071 C 134.229 89.126,134.128 89.291,134.128 89.438 C 134.128 89.585,133.677 90.412,133.126 91.276 C 131.962 93.100,129.657 97.907,129.657 98.510 C 129.657 98.736,129.539 98.995,129.395 99.084 C 129.250 99.173,129.059 99.550,128.968 99.921 C 128.878 100.292,128.653 101.133,128.469 101.788 C 128.284 102.444,128.004 103.450,127.847 104.024 C 126.079 110.465,125.979 118.751,127.590 125.484 C 127.766 126.222,128.048 127.429,128.215 128.167 C 128.513 129.478,128.864 130.474,129.394 131.516 C 129.539 131.801,129.657 132.214,129.657 132.435 C 129.657 132.917,131.957 137.513,132.821 138.757 C 133.159 139.244,133.507 139.844,133.595 140.089 C 134.593 142.870,142.460 151.008,146.905 153.857 C 147.337 154.133,147.831 154.469,148.003 154.602 C 149.797 155.987,156.471 159.017,159.314 159.737 C 160.134 159.945,161.073 160.228,161.401 160.367 C 161.729 160.505,162.466 160.683,163.040 160.761 C 163.614 160.839,165.626 161.115,167.511 161.373 C 170.262 161.750,174.175 161.848,187.332 161.869 C 213.707 161.911,221.931 162.323,223.383 163.671 C 223.539 163.816,223.908 163.934,224.203 163.934 C 224.498 163.934,224.739 164.069,224.739 164.232 C 224.739 164.396,224.936 164.531,225.177 164.531 C 227.225 164.531,233.453 170.026,235.480 173.621 C 236.764 175.898,237.556 177.585,237.556 178.044 C 237.556 178.297,237.675 178.578,237.821 178.668 C 239.069 179.440,239.094 190.068,237.855 192.996 C 237.716 193.323,237.365 194.247,237.076 195.048 C 234.978 200.854,228.315 206.871,222.057 208.610 C 221.319 208.815,220.313 209.103,219.821 209.250 C 219.329 209.398,203.621 209.609,184.913 209.719 L 150.899 209.919 150.212 208.990 C 148.439 206.592,144.088 206.905,142.833 209.521 C 140.497 214.393,146.346 218.891,149.992 215.026 L 150.968 213.991 163.441 214.074 L 175.914 214.158 176.629 215.052 C 177.549 216.202,177.535 217.019,176.576 218.159 L 175.804 219.076 165.469 219.076 L 155.134 219.076 153.349 221.345 C 150.075 225.507,150.337 225.335,147.278 225.335 L 144.611 225.335 143.318 223.621 C 142.607 222.679,141.297 221.002,140.407 219.896 L 138.790 217.884 134.060 217.884 L 129.330 217.884 128.287 216.871 C 124.651 213.340,118.902 217.734,121.181 222.302 C 122.474 224.895,127.882 225.555,128.626 223.210 C 128.875 222.427,130.323 222.172,133.516 222.348 L 136.331 222.504 137.540 224.015 C 138.204 224.846,139.127 226.014,139.590 226.610 C 140.054 227.206,140.908 228.236,141.489 228.899 L 142.546 230.104 147.292 230.104 C 152.678 230.104,151.965 230.399,154.844 226.980 C 155.663 226.007,156.774 224.769,157.312 224.230 L 158.291 223.249 169.842 223.249 L 181.394 223.249 182.398 224.087 C 183.598 225.089,183.733 226.533,182.723 227.544 C 182.130 228.138,181.747 228.171,174.522 228.260 L 166.943 228.353 166.259 227.561 C 162.570 223.295,155.915 228.301,159.114 232.936 C 160.807 235.389,165.796 235.715,166.398 233.411 C 166.591 232.674,171.615 232.498,193.443 232.462 C 210.902 232.433,220.773 232.168,223.845 231.647 C 233.403 230.024,243.810 224.091,250.080 216.692 C 253.236 212.967,254.528 211.094,256.580 207.269 C 257.939 204.735,260.209 198.689,260.209 197.602 C 260.209 197.183,260.329 196.713,260.476 196.557 C 261.641 195.325,261.884 182.165,260.840 176.900 C 257.779 161.473,246.924 148.511,232.191 142.689 C 231.781 142.527,231.177 142.289,230.849 142.161 C 230.522 142.033,229.918 141.841,229.508 141.736 C 229.098 141.631,227.757 141.282,226.528 140.960 C 221.088 139.539,219.666 139.466,194.933 139.319 C 170.291 139.173,167.758 139.034,165.056 137.668 C 164.772 137.525,164.349 137.407,164.118 137.407 C 163.564 137.407,160.488 135.783,159.165 134.792 C 154.032 130.948,151.110 126.437,149.349 119.638 C 147.959 114.271,150.083 105.713,154.037 100.745 C 156.807 97.265,162.588 92.996,164.531 92.996 C 164.839 92.996,165.174 92.861,165.276 92.697 C 165.377 92.534,165.846 92.399,166.319 92.399 C 166.791 92.399,167.250 92.283,167.338 92.141 C 167.683 91.583,182.582 91.294,214.234 91.232 L 226.830 91.207 227.435 90.511 C 228.068 89.783,228.839 88.502,229.707 86.736 C 230.770 84.574,231.250 84.352,234.864 84.352 C 238.553 84.352,238.988 84.457,239.361 85.439 C 239.509 85.829,240.002 86.294,240.456 86.474 C 240.910 86.653,241.521 86.924,241.813 87.075 C 243.312 87.850,246.764 85.507,246.830 83.671 C 246.961 80.014,245.654 78.528,242.325 78.550 C 240.711 78.561,239.344 79.237,239.344 80.024 C 239.344 80.733,238.058 80.961,233.681 81.031 C 228.219 81.118,228.267 81.108,227.618 82.343 C 227.339 82.874,226.785 83.845,226.386 84.501 C 225.988 85.156,225.565 85.894,225.446 86.140 C 225.035 86.991,224.538 87.025,212.645 87.030 L 200.700 87.034 199.993 86.282 C 199.087 85.317,199.081 83.648,199.980 82.749 C 200.592 82.137,200.861 82.116,208.310 82.116 L 216.008 82.116 216.790 83.045 C 219.474 86.234,225.247 82.820,223.903 78.838 C 223.298 77.043,221.342 75.410,219.799 75.410 C 219.061 75.410,216.393 76.940,216.393 77.363 C 216.393 78.039,215.507 78.092,204.302 78.092 L 193.154 78.092 192.270 77.273 C 191.783 76.822,191.363 76.252,191.336 76.006 C 191.203 74.818,191.422 74.128,192.147 73.457 L 192.937 72.724 219.030 72.800 L 245.124 72.876 247.972 76.206 L 250.820 79.536 255.348 79.559 C 259.509 79.581,259.910 79.631,260.290 80.173 C 263.101 84.186,269.633 79.393,267.315 75.018 C 265.937 72.415,261.525 72.115,260.100 74.528 L 259.579 75.410 256.197 75.410 L 252.816 75.410 251.242 73.547 C 250.376 72.522,249.060 71.047,248.317 70.268 L 246.967 68.852 209.400 68.906 C 188.738 68.935,170.559 69.057,169.001 69.177 M264.802 76.029 C 265.774 77.184,265.767 77.349,264.703 78.413 C 263.495 79.621,262.584 79.459,261.748 77.888 C 260.694 75.911,263.345 74.297,264.802 76.029 M220.814 78.568 C 222.577 79.803,220.700 82.726,218.858 81.614 C 217.255 80.646,217.845 78.092,219.672 78.092 C 219.927 78.092,220.441 78.306,220.814 78.568 M243.770 81.332 C 244.478 81.946,244.634 83.413,244.054 83.994 C 243.459 84.589,241.500 84.441,241.143 83.775 C 240.055 81.743,242.076 79.863,243.770 81.332 M147.945 210.567 C 148.942 211.491,148.943 212.228,147.947 213.223 C 146.944 214.227,146.506 214.212,145.432 213.138 C 143.594 211.300,146.037 208.800,147.945 210.567 M126.760 219.125 C 127.516 220.142,127.259 221.300,126.151 221.866 C 124.229 222.848,122.553 220.569,123.920 218.833 C 124.628 217.934,125.979 218.072,126.760 219.125 M164.059 228.946 C 165.834 230.342,164.164 233.269,162.215 232.179 C 160.986 231.493,160.896 229.563,162.059 228.845 C 163.113 228.195,163.103 228.194,164.059 228.946 " stroke="none" fill="#c8251f" fill-rule="evenodd"></path><path id="path1" d="M0.000 149.031 L 0.000 298.063 200.000 298.063 L 400.000 298.063 400.000 149.031 L 400.000 0.000 200.000 0.000 L 0.000 0.000 0.000 149.031 M247.699 68.480 C 247.703 68.603,248.340 69.384,249.114 70.216 C 249.888 71.048,251.172 72.490,251.968 73.420 L 253.414 75.112 256.344 75.112 C 258.929 75.112,259.295 75.047,259.449 74.563 C 260.286 71.925,264.825 71.460,267.075 73.781 C 268.079 74.818,268.107 74.912,268.107 77.249 L 268.107 79.651 266.830 80.785 C 264.786 82.599,262.219 82.661,260.181 80.947 C 259.293 80.200,259.153 80.179,254.991 80.179 C 251.790 80.179,250.614 80.077,250.319 79.776 C 250.103 79.554,249.435 78.783,248.836 78.062 C 248.237 77.341,247.452 76.416,247.091 76.006 C 246.731 75.596,246.095 74.858,245.679 74.367 L 244.921 73.472 220.299 73.382 C 192.545 73.280,192.766 73.271,192.237 74.547 C 191.769 75.677,192.218 76.789,193.309 77.204 C 194.845 77.788,215.121 77.577,215.727 76.971 C 219.278 73.420,224.739 75.241,224.739 79.976 C 224.739 84.421,219.048 86.652,216.172 83.335 L 215.503 82.563 208.422 82.570 C 200.961 82.577,200.159 82.718,199.987 84.054 C 199.653 86.642,200.091 86.734,212.728 86.735 C 223.953 86.736,224.615 86.668,225.211 85.455 C 225.798 84.260,227.200 81.831,227.783 80.999 L 228.357 80.179 233.386 80.179 C 237.877 80.179,238.458 80.122,238.806 79.645 C 242.279 74.884,249.677 79.678,246.989 84.948 C 245.359 88.143,239.557 88.563,238.603 85.555 C 238.424 84.993,238.168 84.948,235.137 84.948 C 231.518 84.948,231.121 85.138,229.980 87.421 C 228.777 89.826,227.734 91.385,227.113 91.704 C 226.612 91.962,219.080 92.060,198.110 92.082 C 179.421 92.101,169.371 92.217,168.573 92.424 C 166.703 92.906,165.334 93.310,164.680 93.571 C 145.715 101.158,144.450 126.883,162.593 135.995 C 164.522 136.964,165.223 137.227,167.884 137.979 C 169.475 138.428,175.498 138.587,197.765 138.770 C 221.114 138.961,225.049 139.268,229.955 141.276 C 230.283 141.410,231.021 141.681,231.595 141.878 C 244.861 146.433,257.557 160.167,260.527 173.174 C 260.658 173.748,260.916 174.754,261.100 175.410 C 261.785 177.850,262.098 181.210,262.087 185.991 C 262.073 191.621,261.801 193.826,260.506 198.808 C 260.357 199.382,260.146 200.222,260.037 200.675 C 259.928 201.128,259.721 201.572,259.577 201.661 C 259.433 201.751,259.314 202.029,259.314 202.281 C 259.314 203.649,254.686 211.917,252.212 214.970 C 246.203 222.384,238.432 227.875,230.253 230.488 C 222.265 233.039,221.599 233.085,192.316 233.085 L 167.227 233.085 166.716 233.865 C 164.199 237.705,157.914 235.255,157.914 230.434 C 157.914 225.784,162.353 223.732,166.052 226.673 L 167.362 227.714 174.630 227.717 C 182.549 227.720,183.010 227.616,183.010 225.835 C 183.010 224.132,183.096 224.143,170.009 224.143 L 157.995 224.143 156.566 225.857 C 154.682 228.115,153.483 229.473,152.775 230.149 C 152.260 230.641,151.657 230.700,147.213 230.700 L 142.227 230.700 140.786 228.964 C 139.993 228.009,139.009 226.782,138.599 226.239 C 138.189 225.696,137.487 224.834,137.039 224.324 C 136.591 223.815,136.222 223.297,136.219 223.174 C 136.205 222.519,129.204 222.946,128.908 223.621 C 127.445 226.956,120.859 225.149,120.275 221.253 C 119.462 215.834,125.828 212.606,129.105 216.776 C 129.561 217.356,129.917 217.404,134.172 217.456 C 136.689 217.487,138.897 217.529,139.078 217.549 C 139.259 217.569,140.353 218.826,141.508 220.343 C 145.078 225.030,145.179 225.079,149.939 224.462 C 150.028 224.451,151.101 223.170,152.324 221.616 L 154.545 218.791 164.723 218.784 L 174.900 218.778 175.848 217.892 C 176.860 216.947,176.880 216.215,175.925 215.127 C 175.502 214.646,174.516 214.605,163.334 214.605 L 151.201 214.605 150.158 215.588 C 145.883 219.621,139.640 214.738,142.237 209.393 C 143.757 206.266,149.304 205.703,150.598 208.544 L 150.919 209.247 184.476 209.150 C 220.345 209.046,219.241 209.094,223.502 207.451 C 232.718 203.897,238.888 194.670,238.349 185.246 C 238.159 181.920,237.875 179.967,237.525 179.598 C 237.378 179.442,237.258 179.121,237.258 178.884 C 237.258 177.362,234.071 172.081,231.787 169.817 C 229.189 167.243,226.877 165.681,223.920 164.500 C 223.551 164.353,222.947 164.110,222.578 163.959 C 219.740 162.803,218.058 162.721,191.505 162.437 C 175.047 162.261,166.529 162.062,165.425 161.829 C 164.523 161.639,162.981 161.284,161.997 161.042 C 161.013 160.799,159.873 160.536,159.463 160.457 C 159.054 160.378,158.450 160.202,158.122 160.067 C 157.794 159.932,157.057 159.658,156.483 159.459 C 154.815 158.878,153.402 158.230,149.108 156.073 C 148.741 155.889,148.439 155.637,148.437 155.514 C 148.436 155.391,148.268 155.285,148.063 155.278 C 147.858 155.272,147.205 154.903,146.612 154.459 C 146.020 154.015,144.746 153.062,143.781 152.341 C 138.445 148.355,131.894 139.833,129.666 133.979 C 129.541 133.651,129.287 133.014,129.101 132.563 C 127.854 129.540,127.680 128.970,126.791 125.037 C 125.853 120.884,125.595 111.226,126.328 107.750 C 126.907 105.007,128.187 100.118,128.466 99.584 C 128.603 99.321,129.021 98.301,129.394 97.317 C 130.137 95.362,131.788 92.111,132.673 90.863 C 132.982 90.428,133.234 89.950,133.234 89.802 C 133.234 89.653,133.474 89.271,133.768 88.953 C 134.062 88.636,134.761 87.705,135.321 86.885 C 137.442 83.784,146.179 75.708,147.414 75.708 C 147.507 75.708,148.143 75.326,148.829 74.858 C 152.902 72.081,160.376 69.539,167.213 68.604 C 169.560 68.283,247.686 68.163,247.699 68.480 M262.419 76.411 C 262.024 77.440,262.413 78.241,263.306 78.241 C 264.368 78.241,264.978 77.442,264.499 76.677 C 264.074 75.998,262.647 75.816,262.419 76.411 M218.838 79.046 C 218.327 79.557,218.396 80.679,218.951 80.892 C 220.426 81.458,221.504 80.628,220.859 79.424 C 220.436 78.634,219.436 78.447,218.838 79.046 M241.952 81.693 C 240.943 82.281,241.484 84.054,242.672 84.054 C 243.663 84.054,244.106 82.599,243.347 81.839 C 242.804 81.297,242.659 81.281,241.952 81.693 M145.562 211.178 C 145.155 212.238,145.716 213.115,146.802 213.115 C 147.813 213.115,147.839 213.085,147.839 211.923 C 147.839 210.637,146.000 210.036,145.562 211.178 M124.665 219.095 C 123.636 219.494,123.721 221.083,124.785 221.350 C 125.788 221.601,126.528 221.144,126.528 220.272 C 126.528 219.375,125.544 218.754,124.665 219.095 M161.908 229.568 C 161.711 229.765,161.550 230.140,161.550 230.402 C 161.550 231.642,163.650 232.087,164.246 230.974 C 164.881 229.786,162.888 228.588,161.908 229.568 " stroke="none" fill="#fbfbfb" fill-rule="evenodd"></path><path id="path2" d="M168.107 68.519 C 167.130 68.692,222.697 68.647,231.148 68.468 C 233.279 68.423,220.201 68.375,202.086 68.361 C 183.972 68.346,168.681 68.418,168.107 68.519 M246.946 68.536 C 247.274 68.670,247.877 69.179,248.287 69.668 C 249.243 70.811,252.485 74.482,253.012 75.019 C 253.559 75.576,259.377 75.452,259.491 74.881 C 259.533 74.672,259.500 74.638,259.416 74.806 C 259.328 74.984,258.040 75.112,256.339 75.112 L 253.414 75.112 251.968 73.420 C 251.172 72.490,249.888 71.048,249.114 70.216 C 248.340 69.384,247.703 68.603,247.699 68.480 C 247.694 68.357,247.388 68.265,247.019 68.275 C 246.382 68.293,246.378 68.306,246.946 68.536 M163.785 69.151 C 162.993 69.491,164.235 69.491,165.574 69.151 L 166.468 68.923 165.425 68.909 C 164.851 68.901,164.113 69.010,163.785 69.151 M161.252 69.747 C 160.683 70.115,161.295 70.115,162.444 69.747 L 163.189 69.508 162.444 69.483 C 162.034 69.469,161.498 69.588,161.252 69.747 M157.079 70.919 C 154.216 71.957,150.424 73.768,148.829 74.857 C 148.143 75.325,147.507 75.708,147.414 75.708 C 146.179 75.708,137.442 83.784,135.321 86.885 C 134.761 87.705,134.062 88.636,133.768 88.953 C 133.474 89.271,133.234 89.653,133.234 89.802 C 133.234 89.950,132.982 90.428,132.673 90.863 C 131.269 92.844,128.510 98.803,128.843 99.136 C 128.930 99.224,129.159 98.819,129.351 98.237 C 133.156 86.707,145.271 75.219,158.122 70.955 C 159.598 70.465,160.469 70.074,160.060 70.086 C 159.650 70.098,158.308 70.472,157.079 70.919 M262.146 72.456 C 261.667 72.683,261.735 72.711,262.487 72.598 C 264.255 72.332,265.605 72.759,266.813 73.966 C 267.443 74.596,267.958 75.004,267.958 74.872 C 267.958 73.373,263.830 71.657,262.146 72.456 M260.186 73.520 L 259.463 74.312 260.432 73.613 C 261.440 72.885,261.569 72.727,261.155 72.727 C 261.019 72.727,260.584 73.084,260.186 73.520 M192.851 73.409 C 191.309 74.189,191.300 76.548,192.836 77.342 C 194.401 78.151,215.663 78.006,216.104 77.182 C 216.923 75.652,220.191 74.853,221.826 75.782 C 226.247 78.297,224.679 84.520,219.632 84.490 C 218.683 84.485,218.070 84.583,218.268 84.709 C 220.616 86.202,224.739 83.185,224.739 79.976 C 224.739 75.241,219.278 73.420,215.727 76.971 C 215.121 77.577,194.845 77.788,193.309 77.204 C 192.218 76.789,191.769 75.677,192.237 74.547 C 192.766 73.271,192.545 73.280,220.299 73.382 L 244.921 73.472 245.679 74.367 C 246.095 74.858,246.731 75.596,247.091 76.006 C 247.452 76.416,248.237 77.341,248.836 78.062 C 249.435 78.783,250.103 79.554,250.319 79.776 C 250.614 80.077,251.790 80.179,254.991 80.179 C 259.153 80.179,259.293 80.200,260.181 80.947 C 262.169 82.619,264.735 82.593,266.737 80.879 C 267.409 80.305,267.958 79.711,267.958 79.559 C 267.958 79.408,267.442 79.801,266.811 80.432 C 264.960 82.283,262.573 82.399,260.450 80.740 C 259.353 79.884,259.335 79.881,255.048 79.881 L 250.746 79.881 248.431 77.124 C 247.158 75.607,245.793 74.065,245.397 73.696 L 244.676 73.025 219.134 73.030 C 199.228 73.033,193.428 73.117,192.851 73.409 M262.789 75.786 C 262.335 76.118,262.386 76.162,263.217 76.158 C 264.362 76.154,264.996 76.928,264.497 77.720 C 263.917 78.638,262.484 78.400,262.259 77.347 C 262.081 76.517,262.065 76.508,262.032 77.213 C 261.968 78.600,263.505 79.225,264.509 78.220 C 265.691 77.038,264.119 74.813,262.789 75.786 M268.054 77.198 C 268.054 78.264,268.108 78.700,268.174 78.167 C 268.240 77.634,268.240 76.762,268.174 76.230 C 268.108 75.697,268.054 76.133,268.054 77.198 M240.713 78.048 C 240.627 78.187,241.193 78.240,241.971 78.165 C 242.863 78.079,243.795 78.200,244.494 78.493 C 245.757 79.020,246.021 78.736,244.797 78.167 C 243.891 77.746,240.952 77.660,240.713 78.048 M218.675 78.936 C 218.028 79.651,218.049 80.562,218.727 81.176 C 219.461 81.840,220.062 81.797,220.744 81.031 C 221.307 80.398,221.306 80.396,220.686 80.776 C 219.750 81.351,218.480 80.938,218.480 80.061 C 218.480 79.290,218.903 78.832,219.821 78.606 C 220.395 78.465,220.394 78.458,219.793 78.425 C 219.449 78.406,218.946 78.636,218.675 78.936 M239.147 79.285 L 238.303 80.179 233.306 80.179 L 228.309 80.179 227.269 81.804 C 226.697 82.698,226.227 83.536,226.223 83.667 C 226.219 83.798,225.954 84.240,225.633 84.650 C 225.313 85.060,225.048 85.522,225.044 85.678 C 225.033 86.135,225.488 85.527,226.371 83.905 C 226.817 83.085,227.511 81.978,227.913 81.446 L 228.644 80.477 233.622 80.477 L 238.599 80.477 239.431 79.434 C 240.452 78.155,240.292 78.072,239.147 79.285 M246.566 80.232 C 247.012 81.080,247.235 82.006,247.221 82.943 C 247.208 83.773,247.299 84.208,247.440 83.986 C 248.002 83.100,247.108 79.697,246.159 79.110 C 246.010 79.018,246.193 79.523,246.566 80.232 M241.654 81.488 C 240.637 82.260,241.366 84.361,242.646 84.347 C 242.879 84.345,242.735 84.174,242.325 83.968 C 241.354 83.479,241.155 82.136,241.987 81.690 C 243.206 81.038,244.176 82.224,243.485 83.521 C 243.155 84.140,243.167 84.165,243.617 83.794 C 245.086 82.582,243.173 80.335,241.654 81.488 M200.487 82.883 C 200.055 83.223,199.713 83.726,199.725 84.001 C 199.745 84.408,199.779 84.418,199.910 84.054 C 200.409 82.672,200.953 82.577,208.418 82.570 L 215.495 82.563 216.291 83.458 C 216.730 83.949,217.207 84.352,217.351 84.352 C 217.496 84.352,217.158 83.882,216.601 83.308 L 215.588 82.265 208.430 82.265 C 201.640 82.265,201.232 82.297,200.487 82.883 M199.721 85.137 C 199.702 85.776,200.823 86.747,201.554 86.724 C 201.765 86.718,201.561 86.508,201.101 86.259 C 200.642 86.010,200.147 85.512,200.003 85.153 L 199.740 84.501 199.721 85.137 M231.568 84.846 C 231.307 84.916,230.798 85.537,230.437 86.227 C 229.829 87.387,229.935 87.302,231.110 85.693 C 231.472 85.196,232.008 85.068,234.327 84.926 L 237.109 84.754 234.575 84.737 C 233.182 84.727,231.829 84.776,231.568 84.846 M237.765 84.858 C 238.126 84.928,238.506 85.250,238.609 85.574 C 239.170 87.343,242.766 88.178,244.974 87.051 C 246.010 86.523,247.315 85.069,247.019 84.773 C 246.951 84.706,246.726 84.969,246.518 85.357 C 245.186 87.846,240.766 87.959,239.049 85.548 C 238.644 84.979,238.171 84.665,237.759 84.690 L 237.109 84.731 237.765 84.858 M228.466 89.545 L 227.370 91.505 213.462 91.547 C 205.812 91.570,192.779 91.679,184.501 91.790 C 171.045 91.969,172.470 91.994,197.942 92.021 C 228.702 92.055,227.396 92.124,228.307 90.414 C 228.583 89.896,229.044 89.113,229.331 88.675 C 229.619 88.236,229.788 87.811,229.708 87.731 C 229.628 87.651,229.069 88.467,228.466 89.545 M167.511 92.399 L 166.766 92.638 167.511 92.647 C 167.921 92.652,168.525 92.540,168.852 92.399 L 169.449 92.143 168.852 92.152 C 168.525 92.157,167.921 92.268,167.511 92.399 M165.425 92.913 C 165.179 93.005,164.657 93.200,164.266 93.345 C 163.874 93.490,163.640 93.694,163.745 93.799 C 163.849 93.904,164.237 93.849,164.606 93.678 C 164.974 93.506,165.611 93.224,166.021 93.051 C 166.780 92.732,166.239 92.606,165.425 92.913 M160.167 95.642 C 155.655 98.636,152.711 102.255,150.803 107.154 C 150.262 108.542,149.927 109.817,149.949 110.402 C 149.976 111.109,149.950 111.170,150.805 108.346 C 152.332 103.299,155.761 98.780,160.285 95.854 C 161.448 95.101,162.536 94.486,162.702 94.486 C 162.869 94.486,163.088 94.352,163.189 94.188 C 163.593 93.534,162.685 93.971,160.167 95.642 M128.213 100.182 C 127.840 101.172,127.490 103.165,127.826 102.385 C 128.331 101.214,128.750 99.739,128.617 99.606 C 128.543 99.531,128.361 99.791,128.213 100.182 M127.053 104.515 C 126.083 108.547,125.954 109.822,125.958 115.350 C 125.961 120.843,126.888 128.055,127.511 127.432 C 127.657 127.286,127.544 126.650,126.632 122.504 C 125.837 118.885,126.242 108.695,127.334 104.878 C 127.504 104.282,127.589 103.631,127.522 103.431 C 127.456 103.232,127.245 103.719,127.053 104.515 M149.516 112.109 C 149.280 113.288,149.326 117.959,149.583 118.870 C 149.689 119.249,149.776 117.673,149.776 115.368 C 149.776 110.747,149.780 110.788,149.516 112.109 M149.957 120.268 C 149.935 121.072,151.112 124.387,152.081 126.256 C 153.260 128.530,156.483 132.618,156.483 131.840 C 156.483 131.650,156.374 131.451,156.241 131.396 C 155.065 130.912,151.744 125.427,150.857 122.504 C 149.960 119.545,149.975 119.583,149.957 120.268 M127.580 128.316 C 127.580 128.644,127.710 129.113,127.869 129.359 C 128.108 129.729,128.158 129.704,128.158 129.210 C 128.158 128.882,128.028 128.413,127.869 128.167 C 127.630 127.797,127.580 127.822,127.580 128.316 M129.366 133.164 C 129.362 133.371,129.482 133.773,129.631 134.058 C 129.781 134.342,130.276 135.379,130.732 136.361 C 132.933 141.108,139.828 149.639,143.368 151.997 C 143.942 152.379,143.477 151.834,142.335 150.787 C 139.716 148.384,137.188 145.715,135.802 143.888 C 134.724 142.469,131.446 137.488,131.446 137.271 C 131.446 136.940,129.372 132.844,129.366 133.164 M158.096 133.490 C 158.604 134.312,163.719 137.134,165.425 137.534 L 166.170 137.708 165.425 137.359 C 162.682 136.076,160.323 134.821,159.194 134.045 C 158.472 133.548,157.978 133.298,158.096 133.490 M166.915 138.003 C 168.064 138.371,168.677 138.371,168.107 138.003 C 167.861 137.844,167.325 137.725,166.915 137.739 L 166.170 137.764 166.915 138.003 M170.595 138.581 C 173.398 138.973,199.300 139.307,199.518 138.954 C 199.643 138.752,195.833 138.648,188.004 138.638 C 181.569 138.631,174.627 138.560,172.578 138.481 C 169.958 138.380,169.370 138.410,170.595 138.581 M210.581 139.230 C 216.155 139.347,221.453 139.574,222.355 139.736 C 225.714 140.336,226.485 140.423,225.484 140.090 C 222.820 139.203,218.536 138.898,209.560 138.957 L 200.447 139.018 210.581 139.230 M226.826 140.686 C 227.072 140.844,227.541 140.967,227.869 140.958 L 228.465 140.942 227.869 140.686 C 226.978 140.303,226.233 140.303,226.826 140.686 M229.061 141.282 C 229.882 141.634,230.173 141.634,229.955 141.282 C 229.854 141.118,229.477 140.993,229.118 141.005 C 228.488 141.025,228.486 141.035,229.061 141.282 M232.216 142.279 C 232.563 142.568,238.747 145.396,238.635 145.215 C 238.563 145.098,237.452 144.486,236.167 143.854 C 234.882 143.222,233.597 142.586,233.313 142.440 C 232.820 142.189,231.954 142.061,232.216 142.279 M239.195 145.668 C 239.359 145.823,240.633 146.728,242.027 147.679 C 243.420 148.630,244.996 149.819,245.529 150.321 C 246.062 150.824,246.498 151.133,246.498 151.008 C 246.498 150.728,245.248 149.668,242.663 147.755 C 240.866 146.426,238.473 144.985,239.195 145.668 M248.815 153.483 C 250.883 155.525,252.716 157.847,255.009 161.327 C 255.900 162.679,256.629 163.686,256.630 163.565 C 256.639 162.353,248.267 151.714,247.305 151.714 C 247.150 151.714,247.830 152.510,248.815 153.483 M145.506 153.582 C 146.109 154.125,146.981 154.765,147.444 155.004 C 147.907 155.243,148.353 155.506,148.435 155.588 C 149.063 156.218,154.509 158.816,156.632 159.500 C 157.288 159.711,157.952 159.990,158.107 160.120 C 158.263 160.251,158.732 160.353,159.151 160.347 C 159.591 160.341,158.888 159.982,157.474 159.491 C 154.226 158.363,150.047 156.283,146.945 154.252 C 145.114 153.054,144.715 152.868,145.506 153.582 M160.358 160.656 C 160.604 160.815,161.073 160.937,161.401 160.928 L 161.997 160.912 161.401 160.656 C 160.510 160.273,159.765 160.273,160.358 160.656 M162.593 161.252 C 162.921 161.393,163.525 161.504,163.934 161.499 L 164.680 161.491 163.934 161.252 C 163.525 161.121,162.921 161.009,162.593 161.004 L 161.997 160.996 162.593 161.252 M166.021 161.848 C 166.431 161.979,167.370 162.083,168.107 162.079 L 169.449 162.071 168.107 161.833 C 167.370 161.702,166.431 161.598,166.021 161.602 L 165.276 161.609 166.021 161.848 M170.517 162.255 C 170.585 162.315,181.170 162.420,194.039 162.487 C 206.908 162.555,214.419 162.523,210.730 162.417 C 203.510 162.208,170.311 162.075,170.517 162.255 M218.033 162.929 C 218.361 162.993,219.367 163.186,220.268 163.357 C 221.855 163.659,222.416 163.843,223.994 164.581 C 224.403 164.772,224.811 164.856,224.900 164.767 C 225.315 164.352,219.976 162.719,218.391 162.777 C 217.848 162.796,217.693 162.862,218.033 162.929 M227.571 166.223 C 227.735 166.374,228.538 167.028,229.356 167.675 C 232.358 170.052,234.167 172.206,235.773 175.319 C 236.170 176.089,236.542 176.672,236.599 176.615 C 237.103 176.111,233.285 170.682,231.120 168.823 C 230.184 168.020,229.268 167.216,229.084 167.037 C 228.901 166.858,228.418 166.539,228.012 166.330 C 227.605 166.120,227.407 166.072,227.571 166.223 M258.495 167.958 C 258.585 168.286,259.007 169.493,259.434 170.640 C 259.860 171.786,260.224 172.994,260.243 173.322 C 260.272 173.819,260.301 173.832,260.413 173.402 C 260.541 172.913,258.921 167.891,258.519 167.530 C 258.417 167.438,258.406 167.630,258.495 167.958 M260.689 174.814 C 260.934 175.910,261.104 176.148,261.098 175.385 C 261.096 175.071,260.958 174.613,260.791 174.367 C 260.570 174.040,260.543 174.161,260.689 174.814 M261.153 176.751 C 261.168 177.981,261.637 179.252,261.648 178.092 C 261.653 177.601,261.542 176.930,261.401 176.602 C 261.168 176.060,261.146 176.074,261.153 176.751 M261.848 185.825 C 261.848 188.836,261.947 191.144,262.067 190.955 C 262.341 190.525,262.326 181.555,262.051 180.861 C 261.939 180.580,261.848 182.814,261.848 185.825 M237.888 181.222 C 237.874 181.632,237.993 182.168,238.152 182.414 C 238.520 182.984,238.520 182.371,238.152 181.222 L 237.913 180.477 237.888 181.222 M238.535 185.842 C 238.538 186.662,238.595 186.962,238.664 186.509 C 238.732 186.055,238.731 185.385,238.660 185.018 C 238.589 184.652,238.533 185.022,238.535 185.842 M238.003 189.866 C 237.890 190.381,237.864 190.870,237.946 190.952 C 238.028 191.034,238.188 190.679,238.301 190.164 C 238.414 189.649,238.440 189.160,238.358 189.078 C 238.276 188.996,238.116 189.351,238.003 189.866 M261.292 194.005 C 261.177 194.723,261.146 195.373,261.223 195.450 C 261.423 195.650,261.785 193.551,261.630 193.087 C 261.559 192.873,261.407 193.286,261.292 194.005 M236.960 193.804 C 236.960 193.893,236.757 194.452,236.509 195.046 C 236.261 195.639,236.125 196.125,236.207 196.125 C 236.443 196.125,237.283 193.964,237.113 193.794 C 237.029 193.710,236.960 193.714,236.960 193.804 M260.839 196.473 C 260.820 196.747,260.728 197.216,260.633 197.517 C 260.471 198.034,260.479 198.035,260.802 197.532 C 260.990 197.240,261.082 196.770,261.008 196.488 C 260.887 196.027,260.870 196.025,260.839 196.473 M235.221 197.516 C 234.842 198.094,234.593 198.626,234.666 198.700 C 234.739 198.773,235.090 198.341,235.445 197.740 C 236.282 196.321,236.114 196.154,235.221 197.516 M259.944 199.713 C 259.719 200.609,259.453 201.475,259.353 201.639 C 259.055 202.126,258.439 203.993,258.543 204.097 C 258.595 204.149,258.804 203.752,259.006 203.214 C 259.209 202.676,259.482 201.967,259.613 201.639 C 260.368 199.747,260.549 199.098,260.457 198.619 C 260.400 198.325,260.170 198.818,259.944 199.713 M233.662 199.886 C 232.359 202.321,227.290 206.009,223.005 207.639 C 221.582 208.181,220.646 208.628,220.925 208.634 C 221.204 208.639,221.808 208.493,222.266 208.309 C 222.725 208.124,223.435 207.838,223.845 207.673 C 227.764 206.095,236.329 199.106,234.344 199.106 C 234.199 199.106,233.892 199.457,233.662 199.886 M257.137 206.710 C 256.865 207.282,256.703 207.750,256.778 207.750 C 256.982 207.750,257.887 205.925,257.751 205.788 C 257.686 205.724,257.410 206.138,257.137 206.710 M144.367 207.306 C 143.511 207.733,142.718 208.377,142.524 208.803 C 142.218 209.474,142.283 209.450,143.166 208.568 C 145.285 206.449,148.449 206.436,150.183 208.539 L 151.009 209.542 172.002 209.463 L 192.996 209.385 171.955 209.312 L 150.915 209.240 150.597 208.540 C 149.791 206.772,146.677 206.155,144.367 207.306 M255.741 209.318 C 255.357 210.013,254.656 211.151,254.183 211.848 C 253.711 212.545,253.392 213.115,253.474 213.115 C 253.831 213.115,256.771 208.386,256.550 208.165 C 256.490 208.104,256.125 208.623,255.741 209.318 M218.033 208.942 C 217.489 209.175,217.503 209.198,218.182 209.198 C 218.592 209.198,219.195 209.083,219.523 208.942 C 220.066 208.708,220.053 208.686,219.374 208.686 C 218.964 208.686,218.361 208.801,218.033 208.942 M141.783 210.248 C 141.671 210.540,141.588 211.003,141.599 211.276 C 141.611 211.606,141.715 211.530,141.905 211.054 C 142.063 210.658,142.147 210.195,142.090 210.026 C 142.033 209.856,141.896 209.956,141.783 210.248 M145.928 210.525 C 145.458 210.869,145.522 210.901,146.465 210.791 C 147.054 210.722,147.462 210.546,147.372 210.400 C 147.137 210.020,146.548 210.072,145.928 210.525 M147.868 211.773 C 147.878 212.814,147.919 212.884,148.189 212.326 C 148.405 211.879,148.402 211.519,148.178 211.133 C 147.911 210.674,147.859 210.782,147.868 211.773 M145.161 211.798 C 145.164 212.113,145.302 212.571,145.468 212.817 C 145.689 213.143,145.717 213.023,145.571 212.370 C 145.326 211.274,145.155 211.036,145.161 211.798 M141.605 212.668 C 141.596 212.996,141.719 213.465,141.878 213.711 C 142.261 214.303,142.261 213.559,141.878 212.668 L 141.622 212.072 141.605 212.668 M146.200 213.413 C 146.301 213.577,146.569 213.711,146.796 213.711 C 147.022 213.711,147.291 213.577,147.392 213.413 C 147.497 213.243,147.240 213.115,146.796 213.115 C 146.352 213.115,146.095 213.243,146.200 213.413 M142.658 215.064 C 142.931 215.481,143.437 215.967,143.783 216.145 C 144.205 216.362,144.074 216.113,143.384 215.388 C 142.173 214.114,141.979 214.027,142.658 215.064 M150.428 215.009 C 150.175 215.395,149.389 216.002,148.680 216.358 C 147.972 216.713,147.727 216.918,148.137 216.813 C 149.013 216.589,150.820 215.294,150.820 214.891 C 150.820 214.723,155.716 214.579,163.115 214.530 L 175.410 214.449 163.149 214.378 L 150.888 214.307 150.428 215.009 M175.896 215.084 C 176.880 216.225,176.868 216.939,175.848 217.892 C 174.838 218.836,174.985 219.114,176.037 218.250 C 177.250 217.255,177.262 215.658,176.063 214.922 C 175.439 214.539,175.432 214.546,175.896 215.084 M122.911 215.475 C 122.004 216.028,120.417 217.844,120.417 218.329 C 120.417 218.461,120.819 218.015,121.310 217.337 C 123.152 214.794,128.147 214.579,128.918 217.009 C 129.071 217.491,129.354 217.577,130.646 217.532 L 132.191 217.478 130.759 217.366 C 129.856 217.295,129.265 217.092,129.159 216.816 C 128.550 215.228,124.678 214.397,122.911 215.475 M250.496 216.617 C 249.671 217.560,248.886 218.532,248.752 218.778 C 248.488 219.264,251.169 216.340,251.805 215.449 C 252.543 214.416,251.992 214.907,250.496 216.617 M137.038 217.498 C 137.409 217.570,137.945 217.567,138.230 217.492 C 138.515 217.418,138.212 217.359,137.556 217.363 C 136.900 217.366,136.667 217.427,137.038 217.498 M141.469 220.790 C 142.871 222.552,144.206 224.229,144.436 224.516 C 144.773 224.938,145.330 225.037,147.362 225.037 L 149.872 225.037 151.884 222.578 C 154.499 219.382,154.704 219.101,154.034 219.626 C 153.752 219.846,152.761 221.020,151.831 222.234 C 150.902 223.448,150.059 224.451,149.959 224.462 C 145.041 225.031,145.101 225.059,141.508 220.343 C 140.353 218.826,139.298 217.586,139.164 217.586 C 139.030 217.586,140.067 219.028,141.469 220.790 M124.189 219.025 C 123.133 220.192,123.851 221.808,125.390 221.732 C 125.688 221.717,125.496 221.579,124.963 221.425 C 123.733 221.070,123.536 219.528,124.665 219.102 C 125.983 218.604,127.097 219.823,126.378 220.978 C 126.021 221.552,126.030 221.572,126.480 221.200 C 127.144 220.651,127.104 219.801,126.379 219.076 C 125.636 218.333,124.832 218.315,124.189 219.025 M120.194 220.119 C 120.198 220.775,120.259 221.008,120.330 220.637 C 120.401 220.267,120.399 219.730,120.324 219.445 C 120.249 219.160,120.191 219.463,120.194 220.119 M245.753 221.381 C 244.769 222.285,244.247 222.841,244.592 222.615 C 245.463 222.048,247.765 219.945,247.642 219.830 C 247.586 219.778,246.736 220.476,245.753 221.381 M120.419 222.057 C 120.417 223.166,123.230 225.356,124.590 225.305 C 125.151 225.283,125.010 225.174,124.024 224.865 C 122.546 224.401,121.776 223.805,120.972 222.504 C 120.668 222.012,120.419 221.811,120.419 222.057 M132.492 222.875 L 136.072 222.968 136.665 223.853 C 136.991 224.339,137.375 224.738,137.518 224.738 C 137.762 224.739,137.608 224.499,136.521 223.184 C 136.139 222.721,135.622 222.661,132.497 222.717 L 128.912 222.782 132.492 222.875 M128.194 224.052 C 127.799 224.430,127.611 224.739,127.775 224.739 C 128.107 224.739,129.228 223.595,129.034 223.454 C 128.967 223.406,128.589 223.675,128.194 224.052 M158.789 223.791 C 158.170 223.862,157.256 224.691,155.097 227.144 L 152.228 230.402 147.258 230.402 L 142.288 230.402 140.816 228.576 C 139.196 226.566,137.389 224.548,138.039 225.475 C 138.626 226.312,138.966 226.743,140.692 228.838 L 142.227 230.700 147.213 230.700 C 151.657 230.700,152.260 230.641,152.775 230.149 C 153.483 229.473,154.682 228.115,156.566 225.857 L 157.995 224.143 169.956 224.143 C 176.535 224.143,181.854 224.079,181.775 224.001 C 181.615 223.841,160.068 223.644,158.789 223.791 M125.931 225.037 L 125.335 225.293 125.931 225.310 C 126.259 225.319,126.729 225.196,126.975 225.037 C 127.567 224.654,126.823 224.654,125.931 225.037 M160.752 225.806 C 159.077 226.616,157.850 228.225,158.066 229.327 C 158.177 229.888,158.194 229.878,158.231 229.238 C 158.294 228.116,159.698 226.534,161.201 225.890 C 162.461 225.349,162.837 225.337,164.428 225.786 C 164.730 225.871,164.575 225.743,164.083 225.502 C 162.874 224.910,162.541 224.940,160.752 225.806 M166.091 226.946 L 167.204 228.018 174.437 227.949 L 181.669 227.880 174.521 227.794 L 167.373 227.709 166.175 226.792 L 164.978 225.875 166.091 226.946 M238.377 226.605 C 237.764 226.947,237.306 227.271,237.360 227.326 C 237.506 227.471,239.304 226.537,239.505 226.211 C 239.723 225.858,239.716 225.860,238.377 226.605 M162.240 229.141 C 161.936 229.425,161.817 229.557,161.976 229.434 C 162.464 229.057,163.412 229.184,163.985 229.703 C 164.298 229.986,164.531 230.053,164.531 229.860 C 164.531 229.109,162.843 228.580,162.240 229.141 M161.261 230.402 C 161.261 231.626,162.775 232.433,163.805 231.758 C 164.204 231.497,164.531 231.126,164.531 230.935 C 164.531 230.743,164.356 230.825,164.143 231.116 C 163.578 231.889,162.111 231.645,161.636 230.700 C 161.429 230.291,161.261 230.156,161.261 230.402 M228.912 230.700 C 228.666 230.859,228.130 231.010,227.720 231.035 C 227.110 231.072,227.085 231.102,227.582 231.201 C 227.915 231.267,228.653 231.120,229.221 230.874 C 229.789 230.627,230.052 230.423,229.806 230.419 C 229.560 230.415,229.158 230.542,228.912 230.700 M158.004 231.540 C 157.852 234.971,164.660 237.202,166.450 234.307 C 166.558 234.132,165.983 234.322,165.172 234.729 C 162.229 236.208,158.983 234.821,158.255 231.775 C 158.079 231.036,158.028 230.989,158.004 231.540 M225.484 231.595 C 224.659 231.805,224.648 231.825,225.335 231.853 C 225.745 231.870,226.282 231.754,226.528 231.595 C 227.035 231.267,226.773 231.267,225.484 231.595 M222.206 232.191 L 221.311 232.418 222.355 232.433 C 222.928 232.440,223.666 232.332,223.994 232.191 C 224.787 231.850,223.544 231.850,222.206 232.191 M195.380 232.787 L 172.429 232.941 195.231 232.996 C 207.772 233.026,218.569 232.940,219.225 232.804 C 220.416 232.558,220.416 232.557,219.374 232.595 C 218.800 232.615,208.003 232.702,195.380 232.787 " stroke="none" fill="#ec9697" fill-rule="evenodd"></path><path id="path3" d="M235.999 68.475 C 236.700 68.538,237.773 68.537,238.383 68.473 C 238.994 68.409,238.420 68.357,237.109 68.359 C 235.797 68.360,235.298 68.412,235.999 68.475 M240.909 68.475 C 241.688 68.537,242.962 68.537,243.741 68.475 C 244.519 68.414,243.882 68.364,242.325 68.364 C 240.768 68.364,240.130 68.414,240.909 68.475 M170.123 68.765 C 170.493 68.836,171.030 68.834,171.315 68.759 C 171.600 68.685,171.297 68.626,170.641 68.630 C 169.985 68.633,169.752 68.694,170.123 68.765 M198.899 72.950 C 200.835 73.002,203.920 73.002,205.755 72.950 C 207.590 72.897,206.006 72.855,202.235 72.855 C 198.465 72.855,196.964 72.898,198.899 72.950 M215.723 72.946 C 216.420 73.008,217.560 73.008,218.256 72.946 C 218.953 72.883,218.383 72.831,216.990 72.831 C 215.596 72.831,215.026 72.883,215.723 72.946 M230.328 80.697 C 231.189 80.757,232.597 80.757,233.458 80.697 C 234.318 80.636,233.614 80.587,231.893 80.587 C 230.171 80.587,229.467 80.636,230.328 80.697 M139.477 82.489 L 138.450 83.607 139.568 82.579 C 140.183 82.014,140.686 81.511,140.686 81.462 C 140.686 81.234,140.433 81.448,139.477 82.489 M145.057 211.227 C 144.788 211.496,144.805 212.450,145.082 212.622 C 145.205 212.698,145.306 212.370,145.306 211.894 C 145.306 211.418,145.294 211.028,145.281 211.028 C 145.267 211.028,145.166 211.118,145.057 211.227 M160.153 219.001 C 162.909 219.050,167.336 219.050,169.989 219.001 C 172.643 218.952,170.387 218.911,164.978 218.911 C 159.568 218.911,157.397 218.952,160.153 219.001 M162.971 223.763 C 163.507 223.829,164.312 223.828,164.759 223.760 C 165.207 223.692,164.769 223.638,163.785 223.639 C 162.802 223.641,162.435 223.697,162.971 223.763 M170.864 223.769 C 172.299 223.824,174.646 223.824,176.080 223.769 C 177.515 223.714,176.341 223.670,173.472 223.670 C 170.604 223.670,169.430 223.714,170.864 223.769 M179.661 223.758 C 180.031 223.829,180.568 223.826,180.853 223.752 C 181.138 223.677,180.835 223.619,180.179 223.622 C 179.523 223.625,179.290 223.686,179.661 223.758 M214.083 232.708 C 214.862 232.769,216.136 232.769,216.915 232.708 C 217.694 232.647,217.057 232.596,215.499 232.596 C 213.942 232.596,213.305 232.647,214.083 232.708 " stroke="none" fill="#d97981" fill-rule="evenodd"></path><path id="path4" d="M169.598 68.832 C 168.368 68.925,185.256 68.961,207.127 68.912 L 246.891 68.822 248.257 70.104 C 249.534 71.303,249.293 70.940,247.488 68.943 C 247.125 68.541,174.778 68.438,169.598 68.832 M164.531 69.449 C 163.512 69.663,163.508 69.669,164.382 69.686 C 164.873 69.697,165.544 69.589,165.872 69.449 C 166.589 69.141,165.994 69.141,164.531 69.449 M249.784 71.758 C 249.788 71.881,250.492 72.728,251.349 73.640 C 252.993 75.389,252.739 74.935,250.880 72.801 C 250.273 72.104,249.780 71.634,249.784 71.758 M154.098 72.578 C 153.689 72.813,153.487 73.004,153.651 73.004 C 153.815 73.004,154.285 72.813,154.694 72.578 C 155.104 72.344,155.306 72.152,155.142 72.152 C 154.978 72.152,154.508 72.344,154.098 72.578 M262.742 72.630 C 261.067 72.998,259.166 74.466,259.688 74.988 C 259.755 75.056,259.982 74.791,260.191 74.399 C 260.599 73.638,261.668 73.025,262.590 73.025 C 262.900 73.025,263.237 72.891,263.338 72.727 C 263.440 72.563,263.481 72.445,263.430 72.464 C 263.380 72.483,263.070 72.557,262.742 72.630 M192.736 72.963 C 192.656 73.093,193.084 73.152,193.687 73.095 C 195.530 72.920,195.748 72.798,194.280 72.762 C 193.511 72.743,192.816 72.833,192.736 72.963 M210.368 72.947 C 211.234 73.008,212.575 73.007,213.348 72.946 C 214.121 72.885,213.413 72.835,211.773 72.836 C 210.134 72.837,209.502 72.887,210.368 72.947 M232.106 72.949 L 244.986 73.032 246.711 75.092 C 247.659 76.225,248.553 77.162,248.697 77.175 C 248.841 77.188,248.086 76.226,247.019 75.037 L 245.080 72.876 232.152 72.871 L 219.225 72.867 232.106 72.949 M265.097 73.168 C 265.736 73.396,266.366 73.755,266.496 73.966 C 266.627 74.177,266.823 74.260,266.932 74.150 C 267.210 73.873,265.256 72.727,264.531 72.741 C 264.186 72.748,264.426 72.929,265.097 73.168 M149.851 74.686 C 148.737 75.291,148.805 75.542,149.925 74.963 C 150.417 74.708,150.820 74.437,150.820 74.359 C 150.820 74.167,150.788 74.178,149.851 74.686 M262.187 75.898 C 261.301 76.784,261.259 76.971,261.748 77.888 C 262.584 79.459,263.495 79.621,264.703 78.413 C 265.767 77.349,265.774 77.184,264.802 76.029 C 263.857 74.906,263.211 74.873,262.187 75.898 M267.616 76.817 C 267.762 79.132,267.168 80.232,265.276 81.150 C 264.702 81.428,264.434 81.649,264.680 81.641 C 266.790 81.570,269.333 76.299,267.735 75.306 C 267.612 75.230,267.558 75.910,267.616 76.817 M217.296 76.170 C 215.963 77.111,216.272 77.105,217.928 76.159 C 218.641 75.751,219.024 75.422,218.778 75.428 C 218.532 75.434,217.865 75.768,217.296 76.170 M221.508 76.012 C 222.108 76.329,222.879 76.945,223.222 77.381 C 223.565 77.816,223.845 78.046,223.845 77.890 C 223.845 77.299,221.373 75.384,220.660 75.423 C 220.527 75.430,220.908 75.696,221.508 76.012 M264.658 76.195 C 265.443 77.193,265.434 77.365,264.544 78.255 C 263.000 79.799,260.964 77.915,262.317 76.195 C 262.656 75.763,263.183 75.410,263.487 75.410 C 263.791 75.410,264.318 75.763,264.658 76.195 M145.950 77.215 C 145.022 77.879,144.262 78.494,144.262 78.581 C 144.262 78.721,146.932 76.899,147.675 76.252 C 148.437 75.590,147.452 76.139,145.950 77.215 M191.356 76.261 C 191.356 76.419,191.769 76.896,192.273 77.321 L 193.190 78.092 204.568 78.025 L 215.946 77.957 204.370 77.801 L 192.794 77.645 192.075 76.809 C 191.680 76.349,191.356 76.102,191.356 76.261 M249.649 78.451 C 250.117 79.058,250.565 79.490,250.644 79.410 C 250.724 79.331,250.341 78.834,249.793 78.306 L 248.798 77.347 249.649 78.451 M241.069 78.320 C 240.780 78.444,241.388 78.539,242.470 78.539 C 243.602 78.539,244.534 78.691,244.754 78.912 C 244.959 79.117,245.264 79.285,245.431 79.285 C 245.599 79.285,245.440 79.077,245.079 78.824 C 244.334 78.302,241.839 77.989,241.069 78.320 M223.854 78.689 C 223.854 78.934,223.984 79.337,224.143 79.583 C 224.400 79.980,224.432 79.980,224.432 79.583 C 224.432 79.337,224.302 78.934,224.143 78.689 C 223.886 78.291,223.854 78.291,223.854 78.689 M255.377 79.806 C 259.110 79.880,259.967 79.978,260.108 80.347 C 260.296 80.838,261.734 81.676,262.355 81.657 C 262.568 81.651,262.283 81.447,261.722 81.203 C 261.161 80.960,260.516 80.495,260.289 80.172 C 259.906 79.624,259.561 79.587,255.348 79.649 L 250.820 79.715 255.377 79.806 M238.492 80.503 C 238.105 80.816,237.903 81.069,238.044 81.064 C 238.408 81.050,239.476 80.211,239.323 80.059 C 239.253 79.989,238.879 80.189,238.492 80.503 M217.907 80.517 C 217.878 81.129,219.240 82.049,219.913 81.871 C 220.320 81.764,220.302 81.730,219.821 81.694 C 219.113 81.642,218.346 81.098,218.105 80.477 C 217.959 80.102,217.927 80.109,217.907 80.517 M139.709 82.496 C 138.607 83.607,137.705 84.623,137.705 84.753 C 137.705 84.884,137.873 84.803,138.077 84.575 C 138.282 84.346,139.251 83.331,140.229 82.318 C 141.208 81.305,141.942 80.477,141.860 80.477 C 141.779 80.477,140.811 81.386,139.709 82.496 M228.147 81.096 C 227.566 81.737,227.602 82.127,228.188 81.541 C 228.566 81.164,229.415 81.072,232.585 81.068 C 234.745 81.066,236.668 80.965,236.858 80.845 C 237.047 80.724,235.261 80.626,232.888 80.626 C 229.336 80.626,228.498 80.709,228.147 81.096 M241.328 81.320 C 241.057 81.620,240.837 82.056,240.839 82.289 C 240.841 82.522,241.013 82.378,241.220 81.969 C 241.442 81.529,241.958 81.147,242.482 81.035 C 243.329 80.854,243.334 80.844,242.595 80.810 C 242.169 80.791,241.599 81.020,241.328 81.320 M246.866 82.712 C 246.872 83.973,246.910 84.073,247.113 83.358 C 247.246 82.893,247.243 82.222,247.107 81.867 C 246.924 81.389,246.862 81.609,246.866 82.712 M205.158 82.190 C 207.094 82.242,210.179 82.242,212.014 82.190 C 213.849 82.137,212.265 82.095,208.495 82.095 C 204.724 82.095,203.223 82.138,205.158 82.190 M199.867 82.844 C 199.578 83.163,199.413 83.598,199.499 83.813 C 199.603 84.073,199.663 84.035,199.678 83.698 C 199.691 83.420,200.000 82.984,200.364 82.729 C 200.729 82.474,200.884 82.265,200.709 82.265 C 200.534 82.265,200.155 82.526,199.867 82.844 M218.703 84.451 C 219.319 84.632,220.025 84.632,220.641 84.451 C 221.495 84.200,221.381 84.166,219.672 84.166 C 217.963 84.166,217.849 84.200,218.703 84.451 M225.853 85.024 L 225.327 85.991 225.927 85.287 C 226.438 84.689,226.711 84.049,226.453 84.056 C 226.412 84.057,226.142 84.492,225.853 85.024 M235.109 84.632 C 237.906 84.759,238.838 84.904,239.053 85.246 C 239.229 85.525,239.337 85.557,239.340 85.331 C 239.349 84.602,238.126 84.353,234.818 84.408 L 231.446 84.465 235.109 84.632 M136.280 86.322 C 135.742 87.042,135.362 87.630,135.435 87.630 C 135.646 87.630,137.491 85.230,137.368 85.116 C 137.308 85.060,136.818 85.602,136.280 86.322 M229.884 86.344 C 229.372 87.447,229.579 87.500,230.211 86.429 C 230.499 85.942,230.626 85.545,230.494 85.546 C 230.362 85.548,230.087 85.907,229.884 86.344 M245.306 86.140 C 244.896 86.461,244.707 86.726,244.887 86.730 C 245.066 86.733,245.456 86.468,245.753 86.140 C 246.432 85.389,246.266 85.389,245.306 86.140 M200.260 86.513 C 200.567 86.904,201.051 87.021,202.197 86.981 L 203.726 86.927 202.243 86.812 C 201.428 86.750,200.556 86.539,200.306 86.345 C 199.908 86.035,199.902 86.057,200.260 86.513 M210.228 86.959 C 212.984 87.009,217.410 87.008,220.064 86.959 C 222.717 86.910,220.462 86.870,215.052 86.870 C 209.642 86.870,207.471 86.910,210.228 86.959 M227.477 90.462 L 226.830 91.207 214.682 91.223 C 197.340 91.245,173.360 91.518,173.182 91.696 C 173.002 91.877,225.798 91.528,226.715 91.342 C 227.063 91.272,227.569 90.877,227.839 90.465 C 228.466 89.509,228.307 89.508,227.477 90.462 M167.362 92.101 C 167.144 92.454,167.436 92.454,168.256 92.101 C 168.831 91.854,168.829 91.844,168.199 91.824 C 167.840 91.813,167.463 91.937,167.362 92.101 M131.318 93.936 C 131.060 94.453,130.849 94.952,130.849 95.045 C 130.849 95.304,131.619 94.109,131.834 93.517 C 132.143 92.664,131.823 92.924,131.318 93.936 M159.980 95.242 C 159.368 95.657,158.867 96.062,158.867 96.140 C 158.867 96.219,159.404 95.928,160.060 95.494 C 161.101 94.805,161.453 94.486,161.172 94.486 C 161.128 94.486,160.592 94.826,159.980 95.242 M128.529 100.661 C 128.131 101.712,127.770 103.553,128.133 102.683 C 128.600 101.562,129.051 100.039,128.947 99.936 C 128.890 99.879,128.702 100.205,128.529 100.661 M152.894 102.253 C 152.537 102.754,152.295 103.214,152.355 103.275 C 152.416 103.335,152.767 102.925,153.136 102.363 C 153.967 101.096,153.779 101.010,152.894 102.253 M127.161 105.377 C 127.058 105.643,126.991 106.286,127.012 106.805 C 127.043 107.591,127.087 107.524,127.272 106.408 C 127.509 104.982,127.466 104.582,127.161 105.377 M126.569 109.154 C 126.469 109.529,126.400 110.171,126.415 110.581 C 126.432 111.020,126.550 110.783,126.703 110.004 C 126.977 108.608,126.880 107.993,126.569 109.154 M149.387 110.831 C 149.009 112.662,148.934 118.428,149.278 119.294 C 149.390 119.578,149.433 118.254,149.373 116.353 C 149.307 114.279,149.412 112.191,149.636 111.135 C 149.842 110.167,149.950 109.314,149.877 109.241 C 149.803 109.167,149.583 109.883,149.387 110.831 M126.166 115.201 C 126.168 116.021,126.226 116.321,126.294 115.868 C 126.363 115.415,126.361 114.744,126.290 114.377 C 126.220 114.011,126.163 114.382,126.166 115.201 M126.408 120.144 C 126.425 120.704,126.550 121.498,126.687 121.908 C 126.847 122.389,126.875 122.072,126.766 121.013 C 126.571 119.138,126.364 118.634,126.408 120.144 M149.658 120.607 C 149.641 120.957,149.836 121.694,150.091 122.246 C 150.549 123.238,150.525 123.023,149.933 120.864 C 149.748 120.189,149.681 120.126,149.658 120.607 M127.112 124.143 C 127.171 124.799,127.364 125.805,127.539 126.379 L 127.858 127.422 127.713 126.379 C 127.632 125.805,127.440 124.799,127.286 124.143 L 127.005 122.951 127.112 124.143 M151.565 126.080 C 151.819 126.572,152.094 126.975,152.176 126.975 C 152.258 126.975,152.117 126.572,151.863 126.080 C 151.609 125.589,151.333 125.186,151.251 125.186 C 151.169 125.186,151.311 125.589,151.565 126.080 M154.023 129.806 C 154.529 130.462,155.588 131.602,156.377 132.340 C 157.475 133.368,157.363 133.193,155.900 131.595 C 153.279 128.731,152.953 128.421,154.023 129.806 M159.288 134.824 C 160.230 135.632,163.515 137.410,164.051 137.401 C 164.233 137.398,163.471 136.934,162.359 136.371 C 161.246 135.807,159.905 135.061,159.378 134.712 L 158.420 134.079 159.288 134.824 M131.446 136.901 C 131.446 137.028,131.915 137.829,132.489 138.681 C 133.063 139.533,133.532 140.126,133.532 139.999 C 133.532 139.872,133.063 139.071,132.489 138.219 C 131.915 137.367,131.446 136.774,131.446 136.901 M169.747 138.930 C 170.238 139.037,173.726 139.120,177.496 139.115 C 181.267 139.110,184.016 139.064,183.607 139.014 C 182.069 138.823,168.890 138.743,169.747 138.930 M205.298 139.414 C 206.000 139.477,207.073 139.476,207.683 139.412 C 208.293 139.348,207.720 139.296,206.408 139.297 C 205.097 139.298,204.597 139.351,205.298 139.414 M211.997 139.409 C 212.448 139.477,213.186 139.477,213.636 139.409 C 214.087 139.340,213.718 139.285,212.817 139.285 C 211.915 139.285,211.546 139.340,211.997 139.409 M216.120 139.303 C 216.189 139.362,217.250 139.482,218.480 139.570 C 219.790 139.664,220.345 139.634,219.821 139.498 C 218.917 139.263,215.891 139.104,216.120 139.303 M221.485 139.898 C 221.554 139.957,222.280 140.083,223.100 140.178 C 224.059 140.288,224.378 140.258,223.994 140.092 C 223.425 139.845,221.227 139.676,221.485 139.898 M133.973 141.166 C 134.266 141.676,134.964 142.615,135.523 143.252 C 136.251 144.081,136.146 143.859,135.157 142.474 C 133.554 140.228,133.224 139.865,133.973 141.166 M226.080 140.842 C 228.029 141.383,228.856 141.365,227.124 140.819 C 226.386 140.587,225.514 140.404,225.186 140.412 C 224.858 140.421,225.261 140.614,226.080 140.842 M228.912 141.580 C 229.158 141.739,229.560 141.869,229.806 141.869 C 230.204 141.869,230.204 141.837,229.806 141.580 C 229.560 141.421,229.158 141.291,228.912 141.291 C 228.515 141.291,228.515 141.323,228.912 141.580 M137.628 145.902 C 138.299 146.721,139.493 147.996,140.282 148.733 C 141.214 149.605,140.995 149.292,139.656 147.839 C 136.759 144.696,136.217 144.179,137.628 145.902 M241.729 147.634 C 241.729 147.708,242.221 148.144,242.823 148.603 C 243.425 149.062,243.823 149.285,243.708 149.099 C 243.472 148.718,241.729 147.427,241.729 147.634 M244.113 149.408 C 244.113 149.474,244.683 149.981,245.380 150.534 C 246.077 151.088,246.458 151.305,246.226 151.017 C 245.790 150.475,244.113 149.198,244.113 149.408 M141.878 150.019 C 141.878 150.070,142.314 150.506,142.846 150.987 L 143.815 151.863 142.940 150.894 C 142.124 149.991,141.878 149.788,141.878 150.019 M143.964 151.793 C 143.964 151.858,144.534 152.365,145.231 152.919 C 145.928 153.473,146.308 153.690,146.077 153.402 C 145.641 152.859,143.964 151.582,143.964 151.793 M246.796 151.796 C 246.796 151.841,247.835 152.880,249.106 154.106 L 251.416 156.334 249.188 154.024 C 247.118 151.878,246.796 151.578,246.796 151.796 M146.647 153.921 C 146.647 153.981,146.982 154.250,147.392 154.518 C 147.802 154.787,148.137 154.891,148.137 154.749 C 148.137 154.608,147.802 154.339,147.392 154.153 C 146.982 153.966,146.647 153.862,146.647 153.921 M251.856 157.368 C 252.203 157.855,252.639 158.347,252.825 158.462 C 253.011 158.577,252.788 158.179,252.329 157.577 C 251.332 156.271,250.957 156.105,251.856 157.368 M253.972 160.303 C 254.501 161.153,254.988 161.848,255.056 161.848 C 255.270 161.848,253.840 159.445,253.416 159.094 C 253.194 158.910,253.444 159.454,253.972 160.303 M163.040 160.954 C 163.450 161.085,164.054 161.196,164.382 161.201 L 164.978 161.210 164.382 160.954 C 164.054 160.813,163.450 160.702,163.040 160.706 L 162.295 160.715 163.040 160.954 M165.648 161.462 C 166.017 161.533,166.621 161.533,166.990 161.462 C 167.358 161.391,167.057 161.333,166.319 161.333 C 165.581 161.333,165.279 161.391,165.648 161.462 M168.334 161.761 C 168.705 161.832,169.242 161.829,169.527 161.755 C 169.812 161.680,169.508 161.622,168.852 161.625 C 168.197 161.628,167.964 161.689,168.334 161.761 M179.381 162.071 C 184.351 162.117,192.399 162.117,197.264 162.071 C 202.130 162.025,198.063 161.988,188.227 161.988 C 178.390 161.988,174.410 162.026,179.381 162.071 M207.004 162.323 C 208.269 162.526,219.756 162.596,218.629 162.394 C 217.973 162.277,214.955 162.191,211.923 162.204 C 208.890 162.217,206.677 162.270,207.004 162.323 M227.576 165.918 C 228.229 166.353,229.455 167.292,230.301 168.004 C 231.147 168.717,231.926 169.300,232.033 169.300 C 232.320 169.300,229.695 167.073,228.180 166.030 C 227.458 165.533,226.760 165.127,226.628 165.127 C 226.497 165.127,226.923 165.483,227.576 165.918 M257.537 166.359 C 257.531 166.463,257.722 167.000,257.962 167.551 C 258.201 168.103,258.397 168.353,258.398 168.107 C 258.399 167.678,257.558 165.971,257.537 166.359 M234.495 172.576 C 234.924 173.231,235.337 173.704,235.414 173.628 C 235.549 173.492,234.064 171.386,233.832 171.386 C 233.768 171.386,234.067 171.922,234.495 172.576 M236.066 174.989 C 236.066 175.077,236.334 175.704,236.662 176.383 C 236.990 177.061,237.258 177.779,237.258 177.979 C 237.258 178.178,237.343 178.256,237.447 178.152 C 237.656 177.943,237.076 176.338,236.460 175.418 C 236.243 175.095,236.066 174.902,236.066 174.989 M260.809 176.925 C 260.812 177.403,260.942 177.996,261.099 178.241 C 261.293 178.546,261.326 178.308,261.201 177.496 C 260.975 176.023,260.803 175.772,260.809 176.925 M261.550 185.991 C 261.550 191.890,261.571 192.145,261.810 189.195 C 261.958 187.370,261.958 184.612,261.810 182.787 C 261.571 179.838,261.550 180.092,261.550 185.991 M238.338 181.818 C 238.581 183.488,238.750 183.726,238.744 182.389 C 238.741 181.829,238.605 181.170,238.441 180.924 C 238.233 180.612,238.202 180.881,238.338 181.818 M238.817 185.991 C 238.817 186.565,238.879 186.800,238.954 186.513 C 239.029 186.226,239.029 185.756,238.954 185.469 C 238.879 185.183,238.817 185.417,238.817 185.991 M238.495 189.320 C 238.470 189.757,238.373 190.361,238.279 190.661 C 238.116 191.177,238.126 191.178,238.447 190.678 C 238.633 190.387,238.731 189.783,238.663 189.337 L 238.539 188.525 238.495 189.320 M237.819 192.185 C 237.720 192.778,237.764 193.056,237.929 192.890 C 238.080 192.740,238.153 192.300,238.092 191.912 C 237.998 191.316,237.956 191.358,237.819 192.185 M260.996 193.803 C 260.895 194.179,260.825 194.754,260.839 195.082 C 260.853 195.410,260.987 195.155,261.137 194.515 C 261.428 193.277,261.304 192.653,260.996 193.803 M235.927 196.896 C 235.649 197.320,235.490 197.735,235.573 197.818 C 235.656 197.901,235.938 197.554,236.200 197.047 C 236.780 195.926,236.620 195.838,235.927 196.896 M260.407 196.622 C 260.298 196.731,260.217 197.100,260.228 197.442 C 260.245 198.013,260.269 198.005,260.532 197.349 C 260.824 196.619,260.763 196.266,260.407 196.622 M233.356 200.781 C 231.964 202.584,229.612 204.632,227.528 205.853 C 226.089 206.697,225.756 207.116,227.062 206.440 C 228.683 205.602,231.604 203.213,232.869 201.692 C 234.592 199.618,234.974 199.106,234.797 199.106 C 234.715 199.106,234.066 199.859,233.356 200.781 M257.873 204.335 C 257.373 205.431,257.468 205.665,258.008 204.668 C 258.261 204.203,258.411 203.766,258.343 203.698 C 258.275 203.630,258.063 203.916,257.873 204.335 M145.902 207.173 C 145.392 207.419,145.419 207.439,146.094 207.309 C 146.527 207.226,147.433 207.352,148.106 207.590 C 149.420 208.053,149.833 207.926,148.571 207.447 C 147.268 206.951,146.519 206.874,145.902 207.173 M256.195 207.925 C 255.917 208.349,255.758 208.763,255.841 208.846 C 255.924 208.929,256.206 208.582,256.469 208.075 C 257.048 206.955,256.889 206.866,256.195 207.925 M223.398 207.909 C 222.906 208.135,222.705 208.320,222.951 208.322 C 223.197 208.323,223.733 208.133,224.143 207.899 C 225.085 207.360,224.582 207.367,223.398 207.909 M221.013 208.644 C 220.188 208.854,220.177 208.874,220.864 208.902 C 221.274 208.919,221.811 208.803,222.057 208.644 C 222.564 208.316,222.302 208.316,221.013 208.644 M150.344 209.165 C 150.657 209.534,151.193 209.821,151.537 209.801 C 152.137 209.768,152.138 209.761,151.565 209.622 C 151.237 209.542,150.700 209.256,150.373 208.986 C 149.781 208.499,149.781 208.500,150.344 209.165 M142.494 209.500 C 141.494 211.370,141.930 214.079,143.444 215.398 C 143.866 215.765,143.786 215.561,143.205 214.784 C 142.218 213.465,141.963 210.662,142.745 209.720 C 142.970 209.448,143.080 209.150,142.988 209.058 C 142.896 208.966,142.673 209.165,142.494 209.500 M206.557 209.240 L 193.592 209.398 206.408 209.464 C 214.294 209.504,219.397 209.418,219.672 209.240 C 219.918 209.081,219.985 208.980,219.821 209.016 C 219.657 209.052,213.689 209.153,206.557 209.240 M162.391 209.761 C 168.018 209.807,177.139 209.807,182.660 209.761 C 188.180 209.716,183.577 209.679,172.429 209.679 C 161.282 209.679,156.765 209.716,162.391 209.761 M145.948 210.060 C 145.872 210.183,146.186 210.283,146.647 210.283 C 147.107 210.283,147.422 210.183,147.346 210.060 C 147.270 209.937,146.955 209.836,146.647 209.836 C 146.338 209.836,146.024 209.937,145.948 210.060 M148.147 210.984 C 148.335 211.370,148.422 211.940,148.341 212.251 C 148.259 212.563,148.314 212.742,148.463 212.650 C 148.880 212.393,148.784 211.503,148.270 210.862 C 147.828 210.311,147.823 210.317,148.147 210.984 M253.204 212.765 C 252.548 213.679,251.241 215.332,250.298 216.437 C 249.355 217.543,248.584 218.529,248.584 218.630 C 248.584 218.868,251.664 215.234,253.328 213.033 C 254.044 212.086,254.577 211.264,254.513 211.207 C 254.449 211.150,253.860 211.851,253.204 212.765 M145.546 213.242 C 146.420 214.044,147.081 214.213,147.390 213.714 C 147.496 213.543,147.370 213.497,147.088 213.605 C 146.813 213.711,146.195 213.507,145.657 213.133 L 144.709 212.475 145.546 213.242 M150.344 214.680 C 149.778 215.349,149.778 215.349,150.392 214.832 C 150.952 214.361,152.127 214.306,163.209 214.232 L 175.410 214.151 163.161 214.080 L 150.912 214.009 150.344 214.680 M124.043 215.463 C 123.799 215.617,124.287 215.706,125.297 215.692 C 126.206 215.679,126.787 215.565,126.589 215.439 C 126.108 215.133,124.540 215.148,124.043 215.463 M149.158 215.790 C 148.998 215.950,148.133 216.214,147.235 216.376 L 145.604 216.672 147.225 216.540 C 148.426 216.442,150.580 215.499,149.602 215.499 C 149.518 215.499,149.318 215.630,149.158 215.790 M176.978 216.339 C 177.120 217.312,176.148 218.680,175.180 218.866 C 174.522 218.994,174.522 218.995,175.160 219.035 C 176.377 219.112,178.032 216.256,177.103 215.682 C 176.969 215.599,176.912 215.894,176.978 216.339 M127.419 216.092 C 127.690 216.529,128.763 217.055,128.763 216.750 C 128.763 216.606,128.419 216.332,127.999 216.141 C 127.562 215.942,127.314 215.921,127.419 216.092 M128.958 217.660 C 129.034 217.783,131.285 217.884,133.960 217.884 L 138.825 217.884 140.076 219.505 C 140.764 220.397,141.546 221.302,141.813 221.517 C 142.081 221.732,141.524 220.941,140.576 219.760 L 138.852 217.612 133.835 217.525 C 131.076 217.476,128.881 217.537,128.958 217.660 M120.486 219.970 C 120.486 220.544,120.548 220.779,120.623 220.492 C 120.698 220.205,120.698 219.735,120.623 219.449 C 120.548 219.162,120.486 219.396,120.486 219.970 M153.800 220.330 C 152.212 222.222,151.802 222.975,153.185 221.461 C 154.283 220.258,155.156 219.067,154.929 219.081 C 154.882 219.084,154.374 219.646,153.800 220.330 M245.753 221.061 C 244.092 222.607,244.073 222.639,245.485 221.506 C 246.869 220.396,247.932 219.356,247.652 219.386 C 247.591 219.392,246.736 220.146,245.753 221.061 M123.866 221.494 C 124.365 222.301,126.975 222.135,126.975 221.296 C 126.975 221.214,126.594 221.344,126.129 221.584 C 125.400 221.961,125.173 221.964,124.480 221.605 C 124.038 221.375,123.762 221.325,123.866 221.494 M129.895 222.399 C 129.518 222.506,130.786 222.607,132.713 222.623 L 136.215 222.653 137.604 224.441 C 139.226 226.530,139.662 226.827,138.279 224.902 C 136.572 222.526,136.372 222.421,133.323 222.308 C 131.814 222.252,130.272 222.293,129.895 222.399 M142.387 222.429 C 142.544 222.634,143.119 223.372,143.666 224.069 L 144.660 225.335 147.277 225.335 C 150.039 225.335,150.463 225.149,151.691 223.398 C 151.921 223.070,151.609 223.305,150.998 223.920 L 149.888 225.037 147.285 225.037 L 144.683 225.037 143.546 223.547 C 142.921 222.727,142.341 222.057,142.256 222.057 C 142.172 222.057,142.231 222.224,142.387 222.429 M242.772 223.424 L 241.878 224.192 242.846 223.551 C 243.379 223.199,243.815 222.852,243.815 222.781 C 243.815 222.558,243.689 222.636,242.772 223.424 M121.585 223.357 C 121.982 223.846,123.100 224.585,123.100 224.359 C 123.100 224.302,122.664 223.936,122.131 223.546 C 121.532 223.107,121.324 223.035,121.585 223.357 M158.168 223.472 C 158.092 223.595,163.370 223.696,169.896 223.696 C 176.422 223.696,181.699 223.595,181.623 223.472 C 181.547 223.349,176.270 223.249,169.896 223.249 C 163.522 223.249,158.244 223.349,158.168 223.472 M156.185 225.402 C 153.980 227.961,153.332 228.876,154.966 227.124 C 156.444 225.538,157.815 223.845,157.621 223.845 C 157.569 223.845,156.923 224.546,156.185 225.402 M124.231 224.849 C 124.757 225.000,125.612 224.993,126.278 224.832 C 127.319 224.581,127.238 224.558,125.375 224.573 C 123.703 224.587,123.493 224.638,124.231 224.849 M162.146 225.633 C 161.818 225.845,162.017 225.918,162.891 225.906 C 163.828 225.893,163.956 225.835,163.487 225.633 C 162.703 225.296,162.668 225.296,162.146 225.633 M159.977 226.568 C 159.521 226.908,158.951 227.567,158.710 228.034 C 158.023 229.363,158.206 229.490,158.947 228.198 C 159.313 227.559,160.080 226.788,160.651 226.484 C 161.222 226.180,161.491 225.936,161.247 225.941 C 161.004 225.946,160.432 226.228,159.977 226.568 M238.077 226.400 C 236.963 227.005,237.031 227.256,238.152 226.677 C 238.644 226.422,239.046 226.151,239.046 226.073 C 239.046 225.881,239.014 225.892,238.077 226.400 M165.876 227.124 C 166.202 227.534,166.602 227.967,166.766 228.088 C 166.930 228.208,170.283 228.278,174.218 228.243 L 181.371 228.178 174.228 228.093 L 167.085 228.007 166.185 227.193 C 165.342 226.430,165.322 226.426,165.876 227.124 M140.103 227.571 C 140.324 227.899,140.975 228.670,141.550 229.285 L 142.595 230.402 147.406 230.402 C 152.282 230.402,153.204 230.190,153.204 229.067 C 153.204 228.931,152.954 229.110,152.648 229.463 C 152.121 230.070,151.833 230.104,147.317 230.104 L 142.544 230.104 141.123 228.539 C 140.342 227.679,139.883 227.243,140.103 227.571 M162.278 228.779 C 161.722 229.225,161.726 229.230,162.370 228.918 C 162.854 228.683,163.227 228.683,163.711 228.918 C 164.355 229.230,164.359 229.225,163.803 228.779 C 163.485 228.525,163.142 228.316,163.040 228.316 C 162.939 228.316,162.596 228.525,162.278 228.779 M231.744 229.370 C 230.540 229.921,231.260 229.922,232.529 229.371 C 233.081 229.131,233.331 228.941,233.085 228.948 C 232.839 228.955,232.235 229.145,231.744 229.370 M164.516 230.618 C 164.434 231.311,164.481 231.764,164.620 231.625 C 164.758 231.486,164.825 230.919,164.768 230.366 C 164.667 229.384,164.661 229.390,164.516 230.618 M161.806 231.875 C 162.542 232.516,163.482 232.681,163.768 232.219 C 163.860 232.070,163.667 232.018,163.339 232.104 C 163.011 232.190,162.374 232.035,161.923 231.761 L 161.103 231.261 161.806 231.875 M222.206 231.907 C 221.790 232.095,221.971 232.122,222.802 231.995 C 223.458 231.895,224.050 231.764,224.118 231.704 C 224.374 231.478,222.778 231.647,222.206 231.907 M158.289 232.063 C 158.259 232.610,160.378 234.874,160.903 234.854 C 161.278 234.840,161.246 234.773,160.771 234.581 C 160.183 234.343,159.497 233.602,158.661 232.298 C 158.466 231.993,158.298 231.887,158.289 232.063 M192.697 232.489 L 172.727 232.644 192.250 232.677 C 202.988 232.695,213.785 232.617,216.244 232.503 L 220.715 232.296 216.692 232.315 C 214.478 232.325,203.681 232.403,192.697 232.489 M168.927 233.003 C 169.460 233.069,170.332 233.069,170.864 233.003 C 171.397 232.936,170.961 232.882,169.896 232.882 C 168.830 232.882,168.394 232.936,168.927 233.003 M165.127 234.451 C 164.711 234.682,164.579 234.862,164.829 234.859 C 165.075 234.857,165.536 234.657,165.854 234.417 C 166.572 233.874,166.129 233.895,165.127 234.451 M161.904 235.212 C 162.388 235.519,163.372 235.534,163.831 235.241 C 164.020 235.121,163.576 235.009,162.844 234.993 C 162.031 234.976,161.665 235.061,161.904 235.212 " stroke="none" fill="#ce7471" fill-rule="evenodd"></path></g></svg>